HIERARCHY
ROOT Hips
{
 OFFSET 0.000000 0.000000 0.000000
 CHANNELS 6 Xposition Yposition Zposition Yrotation Xrotation Zrotation
 JOINT Chest
 {
  OFFSET 0.000000 9.588913 -0.003946
  CHANNELS 3 Yrotation Xrotation Zrotation
  JOINT Chest2
  {
   OFFSET 0.000000 9.541882 0.008053
   CHANNELS 3 Yrotation Xrotation Zrotation
   JOINT Chest3
   {
    OFFSET 0.000000 9.501360 0.000000
    CHANNELS 3 Yrotation Xrotation Zrotation
    JOINT Chest4
    {
     OFFSET 0.000000 9.491660 0.000000
     CHANNELS 3 Yrotation Xrotation Zrotation
     JOINT Neck
     {
      OFFSET 0.000000 14.331917 0.000000
      CHANNELS 3 Yrotation Xrotation Zrotation
      JOINT Head
      {
       OFFSET 0.000000 8.884799 0.017034
       CHANNELS 3 Yrotation Xrotation Zrotation
       End Site
       {
        OFFSET 0.000000 16.896195 0.008993
       }
      }
     }
     JOINT RightCollar
     {
      OFFSET -2.923010 9.499495 0.000000
      CHANNELS 3 Yrotation Xrotation Zrotation
      JOINT RightShoulder
      {
       OFFSET -13.795216 0.000000 0.000000
       CHANNELS 3 Yrotation Xrotation Zrotation
       JOINT RightElbow
       {
        OFFSET -30.272209 0.000000 0.000000
        CHANNELS 3 Yrotation Xrotation Zrotation
        JOINT RightWrist
        {
         OFFSET -24.478199 0.000000 0.000000
         CHANNELS 3 Yrotation Xrotation Zrotation
         End Site
         {
          OFFSET -18.090752 0.000000 0.000000
         }
        }
       }
      }
     }
     JOINT LeftCollar
     {
      OFFSET 2.923010 9.499495 0.000000
      CHANNELS 3 Yrotation Xrotation Zrotation
      JOINT LeftShoulder
      {
       OFFSET 13.795216 0.000000 0.000000
       CHANNELS 3 Yrotation Xrotation Zrotation
       JOINT LeftElbow
       {
        OFFSET 30.272209 0.000000 0.000000
        CHANNELS 3 Yrotation Xrotation Zrotation
        JOINT LeftWrist
        {
         OFFSET 24.478199 0.000000 0.000000
         CHANNELS 3 Yrotation Xrotation Zrotation
         End Site
         {
          OFFSET 18.090752 0.000000 0.000000
         }
        }
       }
      }
     }
    }
   }
  }
 }
 JOINT RightHip
 {
  OFFSET -7.826875 0.019532 0.001973
  CHANNELS 3 Yrotation Xrotation Zrotation
  JOINT RightKnee
  {
   OFFSET 0.000000 -40.546152 -0.001885
   CHANNELS 3 Yrotation Xrotation Zrotation
   JOINT RightAnkle
   {
    OFFSET 0.000000 -39.417092 -0.003189
    CHANNELS 3 Yrotation Xrotation Zrotation
    JOINT RightToe
    {
     OFFSET 0.000000 -7.579396 17.243563
     CHANNELS 3 Yrotation Xrotation Zrotation
     End Site
     {
      OFFSET 0.000000 -1.500329 6.694466
     }
    }
   }
  }
 }
 JOINT LeftHip
 {
  OFFSET 7.826875 0.019532 0.001973
  CHANNELS 3 Yrotation Xrotation Zrotation
  JOINT LeftKnee
  {
   OFFSET 0.000000 -40.546152 -0.001885
   CHANNELS 3 Yrotation Xrotation Zrotation
   JOINT LeftAnkle
   {
    OFFSET 0.000000 -39.417092 -0.003189
    CHANNELS 3 Yrotation Xrotation Zrotation
    JOINT LeftToe
    {
     OFFSET 0.000000 -7.579396 17.243563
     CHANNELS 3 Yrotation Xrotation Zrotation
     End Site
     {
      OFFSET 0.000000 -1.500329 6.694466
     }
    }
   }
  }
 }
}
MOTION
Frames: 15
Frame Time: 0.008333
27.050369 87.625990 -8.681112 65.276582 -0.796750 5.794830 5.203591 7.007815 1.291424 2.939295 4.048521 0.843502 3.685732 5.053434 1.087519 2.939295 4.048522 0.843502 -9.469384 13.768494 -1.819494 -10.029426 -11.004078 0.239516 8.512667 -6.537406 -6.640472 13.275305 -39.095567 49.385067 21.488626 9.358086 -8.145093 25.521779 -1.507596 -31.363462 -5.032295 -1.790878 0.806585 0.017172 -4.865744 -90.855754 -8.239151 0.357396 -5.774524 -2.897484 -5.790495 7.842564 -10.674529 9.009529 -18.359302 -11.327394 3.067918 -0.372692 -6.893491 -6.502040 13.086639 0.105565 -0.482472 0.048345 3.566899 -7.737083 -1.827033 -0.789400 8.565149 0.334940 -3.383031 -0.215613 -1.847849 0.038913 0.455717 0.009217
27.095018 87.629004 -8.665998 65.179570 -0.857097 5.790532 5.193837 6.995707 1.272735 2.931781 4.041997 0.835873 3.676227 5.045361 1.077840 2.931781 4.041997 0.835873 -9.438075 13.779779 -1.814791 -9.993044 -10.993428 0.237238 8.517456 -6.533495 -6.667464 13.310968 -39.150156 49.266743 21.900614 9.287138 -8.133088 25.135919 -1.520815 -31.066155 -5.001916 -1.777088 0.814194 0.078241 -4.827488 -90.859113 -8.213783 0.341960 -5.765079 -2.909724 -5.801351 7.846613 -10.605905 9.079475 -18.382250 -11.298215 3.090616 -0.367001 -6.903288 -6.495200 13.097775 0.107817 -0.502659 0.048343 3.672643 -7.621021 -1.812893 -0.782152 8.565780 0.326969 -3.400187 -0.264669 -1.834559 0.040966 0.458066 0.007622
27.140942 87.631858 -8.648855 65.070714 -0.917416 5.782699 5.187356 6.982721 1.253327 2.926327 4.034848 0.828059 3.669295 5.036502 1.067948 2.926327 4.034848 0.828059 -9.410228 13.788869 -1.808505 -9.961240 -10.984965 0.237541 8.517172 -6.533642 -6.694714 13.332337 -39.216205 49.143138 22.344179 9.217123 -8.111108 24.712982 -1.538241 -30.758001 -4.976480 -1.768022 0.820708 0.135864 -4.786453 -90.854552 -8.182950 0.327672 -5.754990 -2.924616 -5.810644 7.853799 -10.525754 9.147591 -18.401869 -11.270483 3.120385 -0.361301 -6.909044 -6.491374 13.108917 0.109400 -0.522450 0.048301 3.785346 -7.504410 -1.794242 -0.769265 8.572708 0.321652 -3.418636 -0.321140 -1.821684 0.043113 0.461848 0.005312
27.188298 87.634422 -8.629365 64.950973 -0.977728 5.769939 5.183659 6.967733 1.233956 2.922598 4.026489 0.820265 3.664517 5.026126 1.058089 2.922597 4.026489 0.820265 -9.384007 13.796705 -1.801769 -9.931527 -10.977776 0.238734 8.508660 -6.537119 -6.722906 13.337372 -39.301693 49.023472 22.809620 9.141397 -8.071229 24.286928 -1.559294 -30.446768 -4.957861 -1.761954 0.828438 0.192091 -4.742020 -90.847031 -8.145706 0.319195 -5.741760 -2.942979 -5.821225 7.859640 -10.442893 9.215000 -18.416620 -11.243244 3.150431 -0.356466 -6.906170 -6.487526 13.118269 0.111227 -0.541467 0.049412 3.904923 -7.385627 -1.768572 -0.752245 8.582800 0.316752 -3.437557 -0.385288 -1.809612 0.044909 0.468207 0.003421
27.237611 87.636677 -8.607382 64.819176 -1.039575 5.752453 5.182410 6.950723 1.215087 2.920362 4.016677 0.812615 3.661604 5.013930 1.048415 2.920362 4.016677 0.812615 -9.357234 13.804453 -1.796229 -9.900891 -10.970721 0.238476 8.493455 -6.548352 -6.752485 13.329194 -39.403124 48.913333 23.294174 9.052081 -8.010834 23.882464 -1.597478 -30.124867 -4.944258 -1.756196 0.836796 0.245530 -4.695627 -90.838166 -8.100166 0.317272 -5.725881 -2.960950 -5.834855 7.865233 -10.360196 9.284647 -18.427015 -11.213722 3.176029 -0.352689 -6.895612 -6.481282 13.125833 0.113534 -0.559407 0.051484 4.033878 -7.260687 -1.734417 -0.730321 8.592452 0.308620 -3.458462 -0.456545 -1.796448 0.045758 0.477511 0.002073
27.289570 87.638671 -8.582487 64.669441 -1.106252 5.729243 5.184033 6.933242 1.196428 2.920028 4.006137 0.805194 3.661069 5.000817 1.039042 2.920027 4.006137 0.805194 -9.328127 13.812554 -1.791698 -9.867248 -10.963414 0.236554 8.477078 -6.573843 -6.784311 13.303676 -39.514740 48.824533 23.805495 8.943206 -7.930137 23.492980 -1.675835 -29.754029 -4.931011 -1.750439 0.845159 0.290125 -4.648579 -90.825417 -8.046748 0.316133 -5.706606 -2.975760 -5.847042 7.869235 -10.270307 9.360166 -18.432328 -11.181785 3.198909 -0.350309 -6.879414 -6.472608 13.132863 0.115352 -0.576740 0.053601 4.176928 -7.123462 -1.689277 -0.707212 8.599216 0.294843 -3.477948 -0.535963 -1.780569 0.045899 0.490274 0.000465
27.344565 87.640545 -8.554569 64.499493 -1.179901 5.700184 5.189334 6.915732 1.176750 2.922128 3.995712 0.797957 3.663582 4.987839 1.029926 2.922127 3.995712 0.797956 -9.297405 13.821092 -1.786521 -9.831855 -10.955712 0.234959 8.457409 -6.612886 -6.819711 13.258770 -39.635173 48.762132 24.357226 8.796823 -7.828761 23.084155 -1.807624 -29.274030 -4.918212 -1.745754 0.856262 0.322791 -4.598781 -90.809991 -7.988288 0.312758 -5.681081 -2.988964 -5.851040 7.866498 -10.169393 9.443763 -18.433524 -11.148607 3.220858 -0.347126 -6.858792 -6.462098 13.137870 0.117005 -0.593919 0.056103 4.329951 -6.969464 -1.632549 -0.681783 8.599272 0.276039 -3.492071 -0.622455 -1.763066 0.045609 0.506314 -0.001190
27.402475 87.642538 -8.524271 64.311431 -1.259333 5.668107 5.198329 6.897801 1.154699 2.926731 3.985436 0.790210 3.669222 4.975047 1.020202 2.926731 3.985436 0.790210 -9.266318 13.830947 -1.779459 -9.796467 -10.946584 0.235349 8.431122 -6.660094 -6.856841 13.210221 -39.757565 48.708407 24.960548 8.575469 -7.703815 22.612412 -1.989972 -28.629616 -4.909022 -1.744545 0.872577 0.348532 -4.544030 -90.793403 -7.927867 0.311387 -5.648774 -2.995704 -5.846116 7.857039 -10.058102 9.533610 -18.433939 -11.113076 3.242887 -0.341723 -6.836161 -6.450325 13.139921 0.119413 -0.611055 0.059482 4.484378 -6.798366 -1.567090 -0.649583 8.587814 0.253053 -3.499679 -0.711439 -1.745534 0.044897 0.524136 -0.002159
27.462949 87.644905 -8.492024 64.107080 -1.343272 5.634655 5.209498 6.879293 1.129894 2.932715 3.975048 0.781499 3.676578 4.962119 1.009285 2.932714 3.975048 0.781499 -9.233004 13.843685 -1.771000 -9.758720 -10.934438 0.236734 8.402218 -6.711570 -6.893619 13.182890 -39.867100 48.640721 25.618692 8.237350 -7.553804 22.028214 -2.207695 -27.786177 -4.902823 -1.746377 0.891631 0.373515 -4.485005 -90.771498 -7.867526 0.313781 -5.613534 -2.991506 -5.837450 7.845000 -9.935925 9.628168 -18.433950 -11.074953 3.265435 -0.336465 -6.812237 -6.436881 13.141284 0.122737 -0.628861 0.063083 4.636887 -6.611481 -1.495420 -0.614294 8.563274 0.227744 -3.497953 -0.799905 -1.731181 0.044260 0.542495 -0.001504
27.525704 87.647883 -8.457816 63.889812 -1.432369 5.599963 5.220288 6.859937 1.103310 2.938309 3.964397 0.771940 3.683436 4.948870 0.997301 2.938309 3.964397 0.771940 -9.194194 13.860209 -1.762545 -9.714395 -10.918476 0.236792 8.373791 -6.764335 -6.931608 13.184879 -39.957633 48.553833 26.328724 7.782469 -7.377072 21.285784 -2.452944 -26.735369 -4.893824 -1.747059 0.908926 0.396500 -4.424625 -90.740457 -7.806942 0.316922 -5.575387 -2.980832 -5.827703 7.830044 -9.803961 9.728967 -18.432351 -11.037729 3.287422 -0.333187 -6.785943 -6.420586 13.143160 0.126794 -0.648118 0.066614 4.785395 -6.410263 -1.418492 -0.579616 8.527965 0.202091 -3.486290 -0.887119 -1.723632 0.044240 0.560250 0.002003
27.590549 87.651687 -8.421589 63.662549 -1.527591 5.564937 5.229169 6.839954 1.075340 2.942871 3.953758 0.761361 3.688994 4.935648 0.984031 2.942871 3.953758 0.761361 -9.149056 13.879741 -1.754310 -9.662494 -10.899589 0.235098 8.344104 -6.819127 -6.972405 13.196034 -40.037379 48.460398 27.085280 7.270990 -7.178391 20.366810 -2.726068 -25.492329 -4.878993 -1.745457 0.924765 0.417067 -4.365113 -90.702474 -7.743749 0.320480 -5.530955 -2.970938 -5.818888 7.810232 -9.665027 9.837625 -18.430269 -11.001303 3.307351 -0.330392 -6.759516 -6.400446 13.145052 0.131103 -0.668853 0.069759 4.929438 -6.195313 -1.337433 -0.543395 8.483731 0.175924 -3.467825 -0.971996 -1.721133 0.044365 0.576025 0.006985
27.657039 87.656455 -8.383370 63.424374 -1.627276 5.530983 5.237026 6.818729 1.044899 2.946865 3.942773 0.748879 3.693820 4.922009 0.968371 2.946865 3.942773 0.748879 -9.098715 13.901661 -1.744925 -9.604710 -10.878380 0.233431 8.308760 -6.878757 -7.012056 13.189030 -40.120261 48.378786 27.867890 6.806111 -6.978531 19.288353 -3.029756 -24.079687 -4.860360 -1.741778 0.943217 0.442728 -4.307022 -90.660749 -7.674387 0.327953 -5.482219 -2.964801 -5.814631 7.791191 -9.519827 9.951956 -18.429489 -10.963064 3.324614 -0.326695 -6.734317 -6.376239 13.147788 0.135640 -0.690523 0.071284 5.075100 -5.968762 -1.253609 -0.502819 8.431642 0.147992 -3.448030 -1.053371 -1.719843 0.044063 0.588670 0.011372
27.724945 87.662416 -8.345554 63.174194 -1.723684 5.513044 5.244585 6.792593 0.996787 2.950442 3.930226 0.733920 3.698094 4.906441 0.949596 2.950441 3.930227 0.733920 -9.044397 13.926424 -1.733447 -9.542724 -10.854285 0.233114 8.263782 -6.941769 -7.046635 13.150093 -40.221851 48.318822 28.645440 6.496744 -6.781683 18.076513 -3.349142 -22.542166 -4.840843 -1.736746 0.965991 0.480031 -4.248787 -90.615518 -7.596749 0.338042 -5.429759 -2.962077 -5.812413 7.774184 -9.370438 10.059697 -18.445785 -10.924599 3.336581 -0.322654 -6.706937 -6.320454 13.151089 0.146941 -0.735177 0.073337 5.232835 -5.738522 -1.184629 -0.454720 8.379117 0.118938 -3.435729 -1.156043 -1.717449 0.045028 0.617759 0.015489
27.792345 87.669020 -8.303004 62.915538 -1.819961 5.480729 5.253047 6.764778 0.962178 2.953552 3.915288 0.717090 3.701757 4.887899 0.928456 2.953551 3.915288 0.717090 -8.988209 13.953470 -1.720164 -9.478980 -10.827810 0.234329 8.208568 -7.002869 -7.079934 13.080676 -40.351804 48.279442 29.397162 6.394632 -6.574497 16.751631 -3.631732 -20.937436 -4.822962 -1.730754 0.989909 0.526777 -4.189183 -90.565399 -7.513286 0.343294 -5.373823 -2.956964 -5.809045 7.757378 -9.218907 10.168719 -18.444212 -10.886667 3.350468 -0.319614 -6.673813 -6.289407 13.155831 0.154195 -0.757858 0.072421 5.401067 -5.501874 -1.098192 -0.397762 8.310893 0.091256 -3.433321 -1.228991 -1.716535 0.044587 0.624882 0.017674
27.859247 87.676288 -8.257872 62.646977 -1.909298 5.447563 5.261637 6.732559 0.926463 2.956315 3.897251 0.698956 3.704965 4.865496 0.905654 2.956314 3.897251 0.698956 -8.930707 13.982559 -1.705335 -9.414086 -10.799186 0.236921 8.146240 -7.057149 -7.117314 12.996520 -40.503041 48.253115 30.116897 6.489148 -6.356294 15.327832 -3.828161 -19.294436 -4.804926 -1.722179 1.012785 0.580281 -4.128680 -90.513609 -7.425149 0.343183 -5.313390 -2.945422 -5.805271 7.742635 -9.069025 10.267000 -18.439033 -10.846385 3.364232 -0.318964 -6.634338 -6.256995 13.160967 0.161859 -0.779906 0.071336 5.583190 -5.263656 -1.010353 -0.331906 8.230195 0.065663 -3.439587 -1.296971 -1.715954 0.044309 0.630950 0.018554
